G04*
G04 #@! TF.GenerationSoftware,Altium Limited,Altium Designer,22.6.1 (34)*
G04*
G04 Layer_Color=8388736*
%FSLAX44Y44*%
%MOMM*%
G71*
G04*
G04 #@! TF.SameCoordinates,23C4D601-C5C1-42F0-A970-71E03A1B6A10*
G04*
G04*
G04 #@! TF.FilePolarity,Negative*
G04*
G01*
G75*
G04:AMPARAMS|DCode=23|XSize=4.6mm|YSize=1.6mm|CornerRadius=0.425mm|HoleSize=0mm|Usage=FLASHONLY|Rotation=90.000|XOffset=0mm|YOffset=0mm|HoleType=Round|Shape=RoundedRectangle|*
%AMROUNDEDRECTD23*
21,1,4.6000,0.7500,0,0,90.0*
21,1,3.7500,1.6000,0,0,90.0*
1,1,0.8500,0.3750,1.8750*
1,1,0.8500,0.3750,-1.8750*
1,1,0.8500,-0.3750,-1.8750*
1,1,0.8500,-0.3750,1.8750*
%
%ADD23ROUNDEDRECTD23*%
%ADD24R,0.7900X1.0900*%
G04:AMPARAMS|DCode=25|XSize=3.16mm|YSize=2.66mm|CornerRadius=0.16mm|HoleSize=0mm|Usage=FLASHONLY|Rotation=90.000|XOffset=0mm|YOffset=0mm|HoleType=Round|Shape=RoundedRectangle|*
%AMROUNDEDRECTD25*
21,1,3.1600,2.3400,0,0,90.0*
21,1,2.8400,2.6600,0,0,90.0*
1,1,0.3200,1.1700,1.4200*
1,1,0.3200,1.1700,-1.4200*
1,1,0.3200,-1.1700,-1.4200*
1,1,0.3200,-1.1700,1.4200*
%
%ADD25ROUNDEDRECTD25*%
%ADD26O,1.3600X0.6600*%
%ADD27O,1.7000X0.7500*%
%ADD28O,1.5400X0.2940*%
%ADD29O,0.2940X1.5400*%
%ADD30O,1.5000X0.8000*%
G04:AMPARAMS|DCode=31|XSize=1.1mm|YSize=1.1mm|CornerRadius=0.15mm|HoleSize=0mm|Usage=FLASHONLY|Rotation=270.000|XOffset=0mm|YOffset=0mm|HoleType=Round|Shape=RoundedRectangle|*
%AMROUNDEDRECTD31*
21,1,1.1000,0.8000,0,0,270.0*
21,1,0.8000,1.1000,0,0,270.0*
1,1,0.3000,-0.4000,-0.4000*
1,1,0.3000,-0.4000,0.4000*
1,1,0.3000,0.4000,0.4000*
1,1,0.3000,0.4000,-0.4000*
%
%ADD31ROUNDEDRECTD31*%
%ADD32R,0.2000X0.2000*%
%ADD33R,1.0000X0.7000*%
G04:AMPARAMS|DCode=34|XSize=1.7mm|YSize=3.6mm|CornerRadius=0.21mm|HoleSize=0mm|Usage=FLASHONLY|Rotation=0.000|XOffset=0mm|YOffset=0mm|HoleType=Round|Shape=RoundedRectangle|*
%AMROUNDEDRECTD34*
21,1,1.7000,3.1800,0,0,0.0*
21,1,1.2800,3.6000,0,0,0.0*
1,1,0.4200,0.6400,-1.5900*
1,1,0.4200,-0.6400,-1.5900*
1,1,0.4200,-0.6400,1.5900*
1,1,0.4200,0.6400,1.5900*
%
%ADD34ROUNDEDRECTD34*%
%ADD35R,0.7000X1.0000*%
G04:AMPARAMS|DCode=36|XSize=12.3mm|YSize=9.85mm|CornerRadius=0.5375mm|HoleSize=0mm|Usage=FLASHONLY|Rotation=270.000|XOffset=0mm|YOffset=0mm|HoleType=Round|Shape=RoundedRectangle|*
%AMROUNDEDRECTD36*
21,1,12.3000,8.7750,0,0,270.0*
21,1,11.2250,9.8500,0,0,270.0*
1,1,1.0750,-4.3875,-5.6125*
1,1,1.0750,-4.3875,5.6125*
1,1,1.0750,4.3875,5.6125*
1,1,1.0750,4.3875,-5.6125*
%
%ADD36ROUNDEDRECTD36*%
G04:AMPARAMS|DCode=37|XSize=1.7mm|YSize=3.6mm|CornerRadius=0.21mm|HoleSize=0mm|Usage=FLASHONLY|Rotation=270.000|XOffset=0mm|YOffset=0mm|HoleType=Round|Shape=RoundedRectangle|*
%AMROUNDEDRECTD37*
21,1,1.7000,3.1800,0,0,270.0*
21,1,1.2800,3.6000,0,0,270.0*
1,1,0.4200,-1.5900,-0.6400*
1,1,0.4200,-1.5900,0.6400*
1,1,0.4200,1.5900,0.6400*
1,1,0.4200,1.5900,-0.6400*
%
%ADD37ROUNDEDRECTD37*%
%ADD38R,0.8000X1.0000*%
G04:AMPARAMS|DCode=39|XSize=12.3mm|YSize=9.85mm|CornerRadius=0.5375mm|HoleSize=0mm|Usage=FLASHONLY|Rotation=0.000|XOffset=0mm|YOffset=0mm|HoleType=Round|Shape=RoundedRectangle|*
%AMROUNDEDRECTD39*
21,1,12.3000,8.7750,0,0,0.0*
21,1,11.2250,9.8500,0,0,0.0*
1,1,1.0750,5.6125,-4.3875*
1,1,1.0750,-5.6125,-4.3875*
1,1,1.0750,-5.6125,4.3875*
1,1,1.0750,5.6125,4.3875*
%
%ADD39ROUNDEDRECTD39*%
G04:AMPARAMS|DCode=40|XSize=2.1mm|YSize=3.6mm|CornerRadius=0.25mm|HoleSize=0mm|Usage=FLASHONLY|Rotation=270.000|XOffset=0mm|YOffset=0mm|HoleType=Round|Shape=RoundedRectangle|*
%AMROUNDEDRECTD40*
21,1,2.1000,3.1000,0,0,270.0*
21,1,1.6000,3.6000,0,0,270.0*
1,1,0.5000,-1.5500,-0.8000*
1,1,0.5000,-1.5500,0.8000*
1,1,0.5000,1.5500,0.8000*
1,1,0.5000,1.5500,-0.8000*
%
%ADD40ROUNDEDRECTD40*%
G04:AMPARAMS|DCode=41|XSize=1.6mm|YSize=3.3mm|CornerRadius=0.2mm|HoleSize=0mm|Usage=FLASHONLY|Rotation=0.000|XOffset=0mm|YOffset=0mm|HoleType=Round|Shape=RoundedRectangle|*
%AMROUNDEDRECTD41*
21,1,1.6000,2.9000,0,0,0.0*
21,1,1.2000,3.3000,0,0,0.0*
1,1,0.4000,0.6000,-1.4500*
1,1,0.4000,-0.6000,-1.4500*
1,1,0.4000,-0.6000,1.4500*
1,1,0.4000,0.6000,1.4500*
%
%ADD41ROUNDEDRECTD41*%
G04:AMPARAMS|DCode=42|XSize=2.3mm|YSize=2.1mm|CornerRadius=0.25mm|HoleSize=0mm|Usage=FLASHONLY|Rotation=270.000|XOffset=0mm|YOffset=0mm|HoleType=Round|Shape=RoundedRectangle|*
%AMROUNDEDRECTD42*
21,1,2.3000,1.6000,0,0,270.0*
21,1,1.8000,2.1000,0,0,270.0*
1,1,0.5000,-0.8000,-0.9000*
1,1,0.5000,-0.8000,0.9000*
1,1,0.5000,0.8000,0.9000*
1,1,0.5000,0.8000,-0.9000*
%
%ADD42ROUNDEDRECTD42*%
G04:AMPARAMS|DCode=43|XSize=1.6mm|YSize=0.9mm|CornerRadius=0.13mm|HoleSize=0mm|Usage=FLASHONLY|Rotation=270.000|XOffset=0mm|YOffset=0mm|HoleType=Round|Shape=RoundedRectangle|*
%AMROUNDEDRECTD43*
21,1,1.6000,0.6400,0,0,270.0*
21,1,1.3400,0.9000,0,0,270.0*
1,1,0.2600,-0.3200,-0.6700*
1,1,0.2600,-0.3200,0.6700*
1,1,0.2600,0.3200,0.6700*
1,1,0.2600,0.3200,-0.6700*
%
%ADD43ROUNDEDRECTD43*%
%ADD44R,1.0500X1.1500*%
G04:AMPARAMS|DCode=45|XSize=2.6mm|YSize=2.4mm|CornerRadius=0.28mm|HoleSize=0mm|Usage=FLASHONLY|Rotation=270.000|XOffset=0mm|YOffset=0mm|HoleType=Round|Shape=RoundedRectangle|*
%AMROUNDEDRECTD45*
21,1,2.6000,1.8400,0,0,270.0*
21,1,2.0400,2.4000,0,0,270.0*
1,1,0.5600,-0.9200,-1.0200*
1,1,0.5600,-0.9200,1.0200*
1,1,0.5600,0.9200,1.0200*
1,1,0.5600,0.9200,-1.0200*
%
%ADD45ROUNDEDRECTD45*%
G04:AMPARAMS|DCode=46|XSize=1.9mm|YSize=2.1mm|CornerRadius=0.23mm|HoleSize=0mm|Usage=FLASHONLY|Rotation=0.000|XOffset=0mm|YOffset=0mm|HoleType=Round|Shape=RoundedRectangle|*
%AMROUNDEDRECTD46*
21,1,1.9000,1.6400,0,0,0.0*
21,1,1.4400,2.1000,0,0,0.0*
1,1,0.4600,0.7200,-0.8200*
1,1,0.4600,-0.7200,-0.8200*
1,1,0.4600,-0.7200,0.8200*
1,1,0.4600,0.7200,0.8200*
%
%ADD46ROUNDEDRECTD46*%
%ADD47R,1.2000X0.8000*%
%ADD48R,0.5000X0.6000*%
%ADD49R,1.1500X1.0500*%
%ADD50R,1.8000X1.2000*%
%ADD51R,1.4000X1.0000*%
%ADD52R,0.9000X3.1000*%
G04:AMPARAMS|DCode=53|XSize=1.7mm|YSize=1.9mm|CornerRadius=0.21mm|HoleSize=0mm|Usage=FLASHONLY|Rotation=0.000|XOffset=0mm|YOffset=0mm|HoleType=Round|Shape=RoundedRectangle|*
%AMROUNDEDRECTD53*
21,1,1.7000,1.4800,0,0,0.0*
21,1,1.2800,1.9000,0,0,0.0*
1,1,0.4200,0.6400,-0.7400*
1,1,0.4200,-0.6400,-0.7400*
1,1,0.4200,-0.6400,0.7400*
1,1,0.4200,0.6400,0.7400*
%
%ADD53ROUNDEDRECTD53*%
%ADD54C,1.7000*%
G04:AMPARAMS|DCode=55|XSize=18.1mm|YSize=10.1mm|CornerRadius=1.05mm|HoleSize=0mm|Usage=FLASHONLY|Rotation=180.000|XOffset=0mm|YOffset=0mm|HoleType=Round|Shape=RoundedRectangle|*
%AMROUNDEDRECTD55*
21,1,18.1000,8.0000,0,0,180.0*
21,1,16.0000,10.1000,0,0,180.0*
1,1,2.1000,-8.0000,4.0000*
1,1,2.1000,8.0000,4.0000*
1,1,2.1000,8.0000,-4.0000*
1,1,2.1000,-8.0000,-4.0000*
%
%ADD55ROUNDEDRECTD55*%
%ADD56R,1.7900X1.7900*%
%ADD57C,1.7900*%
%ADD58C,4.8600*%
%ADD59C,2.1000*%
%ADD60C,3.3000*%
%ADD61R,1.6000X1.6000*%
%ADD62C,1.6000*%
%ADD63R,2.1000X2.1000*%
%ADD64C,6.6000*%
%ADD65C,0.9000*%
G36*
X25178Y-363421D02*
X25272Y-363450D01*
X25359Y-363496D01*
X25435Y-363559D01*
X25498Y-363635D01*
X25544Y-363722D01*
X25573Y-363816D01*
X25582Y-363914D01*
Y-370586D01*
X25582Y-370586D01*
X25578Y-370635D01*
X25573Y-370684D01*
X25551Y-370756D01*
X25544Y-370778D01*
X25498Y-370865D01*
X25435Y-370941D01*
X20357Y-376020D01*
X20357Y-376020D01*
X20280Y-376082D01*
X20194Y-376129D01*
X20172Y-376135D01*
X20099Y-376157D01*
X20001Y-376167D01*
X19903Y-376157D01*
X19809Y-376129D01*
X19722Y-376082D01*
X19646Y-376020D01*
X14565Y-370939D01*
X14565Y-370939D01*
X14503Y-370863D01*
X14456Y-370776D01*
X14450Y-370754D01*
X14428Y-370682D01*
X14418Y-370584D01*
Y-363914D01*
X14428Y-363816D01*
X14456Y-363722D01*
X14503Y-363635D01*
X14565Y-363559D01*
X14641Y-363496D01*
X14728Y-363450D01*
X14822Y-363421D01*
X14921Y-363412D01*
X25080D01*
X25178Y-363421D01*
D02*
G37*
G36*
X25129Y-375300D02*
X25178Y-375305D01*
X25250Y-375327D01*
X25272Y-375333D01*
X25359Y-375380D01*
X25435Y-375442D01*
X25498Y-375518D01*
X25544Y-375605D01*
X25551Y-375627D01*
X25573Y-375700D01*
X25578Y-375748D01*
X25582Y-375798D01*
X25582Y-375798D01*
Y-387500D01*
X25573Y-387598D01*
X25544Y-387692D01*
X25498Y-387779D01*
X25435Y-387855D01*
X25359Y-387918D01*
X25272Y-387964D01*
X25178Y-387993D01*
X25080Y-388002D01*
X14920D01*
X14822Y-387993D01*
X14728Y-387964D01*
X14641Y-387918D01*
X14565Y-387855D01*
X14502Y-387779D01*
X14456Y-387692D01*
X14427Y-387598D01*
X14418Y-387500D01*
Y-375798D01*
X14418Y-375798D01*
X14427Y-375700D01*
X14456Y-375605D01*
X14502Y-375518D01*
X14565Y-375442D01*
X14641Y-375380D01*
X14728Y-375333D01*
X14822Y-375305D01*
X14920Y-375295D01*
X15009Y-375304D01*
X15018Y-375305D01*
X15112Y-375333D01*
X15199Y-375380D01*
X15241Y-375414D01*
X15275Y-375442D01*
X15275Y-375442D01*
X20000Y-380167D01*
X24725Y-375442D01*
X24801Y-375380D01*
X24888Y-375333D01*
X24910Y-375327D01*
X24982Y-375305D01*
X25031Y-375300D01*
X25080Y-375295D01*
X25129Y-375300D01*
D02*
G37*
D23*
X23000Y-230000D02*
D03*
Y-325000D02*
D03*
D24*
X755000Y-521000D02*
D03*
X736000D02*
D03*
X755000Y-499000D02*
D03*
X745500D02*
D03*
X736000D02*
D03*
X-23500Y-484500D02*
D03*
X-4500D02*
D03*
X-23500Y-506500D02*
D03*
X-14000D02*
D03*
X-4500D02*
D03*
X755000Y-235850D02*
D03*
X736000D02*
D03*
X755000Y-213850D02*
D03*
X745500D02*
D03*
X736000D02*
D03*
X755000Y49000D02*
D03*
X736000D02*
D03*
X755000Y71000D02*
D03*
X745500D02*
D03*
X736000D02*
D03*
D25*
X343000Y-131300D02*
D03*
D26*
X371000Y-150350D02*
D03*
Y-137650D02*
D03*
Y-124950D02*
D03*
Y-112250D02*
D03*
X315000Y-150350D02*
D03*
Y-137650D02*
D03*
Y-124950D02*
D03*
Y-112250D02*
D03*
D27*
X14250Y-138750D02*
D03*
Y-151450D02*
D03*
Y-126050D02*
D03*
Y-113350D02*
D03*
X-35750D02*
D03*
X-35750Y-151450D02*
D03*
Y-138750D02*
D03*
Y-126050D02*
D03*
X-31750Y-566810D02*
D03*
Y-554110D02*
D03*
Y-579510D02*
D03*
Y-592210D02*
D03*
X18250D02*
D03*
X18250Y-554110D02*
D03*
Y-566810D02*
D03*
Y-579510D02*
D03*
D28*
X117000Y-352500D02*
D03*
Y-347500D02*
D03*
Y-342500D02*
D03*
Y-337500D02*
D03*
Y-332500D02*
D03*
Y-327500D02*
D03*
Y-322500D02*
D03*
Y-317500D02*
D03*
Y-312500D02*
D03*
Y-307500D02*
D03*
Y-302500D02*
D03*
Y-297500D02*
D03*
Y-292500D02*
D03*
Y-287500D02*
D03*
Y-282500D02*
D03*
Y-277500D02*
D03*
X233000Y-352500D02*
D03*
Y-347500D02*
D03*
Y-342500D02*
D03*
Y-337500D02*
D03*
Y-332500D02*
D03*
Y-327500D02*
D03*
Y-322500D02*
D03*
Y-317500D02*
D03*
Y-312500D02*
D03*
Y-307500D02*
D03*
Y-302500D02*
D03*
Y-297500D02*
D03*
Y-292500D02*
D03*
Y-287500D02*
D03*
Y-282500D02*
D03*
Y-277500D02*
D03*
D29*
X137500Y-373000D02*
D03*
X142500D02*
D03*
X147500D02*
D03*
X152500D02*
D03*
X157500D02*
D03*
X162500D02*
D03*
X167500D02*
D03*
X172500D02*
D03*
X177500D02*
D03*
X212500D02*
D03*
X207500D02*
D03*
X202500D02*
D03*
X197500D02*
D03*
X192500D02*
D03*
X187500D02*
D03*
X182500D02*
D03*
X137500Y-257000D02*
D03*
X147500D02*
D03*
X152500D02*
D03*
X157500D02*
D03*
X162500D02*
D03*
X167500D02*
D03*
X172500D02*
D03*
X142500D02*
D03*
X177500D02*
D03*
X212500D02*
D03*
X207500D02*
D03*
X202500D02*
D03*
X197500D02*
D03*
X192500D02*
D03*
X187500D02*
D03*
X182500D02*
D03*
D30*
X377500Y-398200D02*
D03*
Y-385500D02*
D03*
Y-372800D02*
D03*
Y-360100D02*
D03*
Y-347400D02*
D03*
Y-334700D02*
D03*
Y-322000D02*
D03*
Y-309300D02*
D03*
Y-296600D02*
D03*
Y-283900D02*
D03*
Y-271200D02*
D03*
Y-258500D02*
D03*
Y-245800D02*
D03*
Y-233100D02*
D03*
X278440Y-398200D02*
D03*
Y-385500D02*
D03*
Y-372800D02*
D03*
Y-360100D02*
D03*
Y-347400D02*
D03*
Y-334700D02*
D03*
Y-322000D02*
D03*
Y-309300D02*
D03*
Y-296600D02*
D03*
Y-283900D02*
D03*
Y-271200D02*
D03*
Y-258500D02*
D03*
Y-245800D02*
D03*
Y-233100D02*
D03*
D31*
X720000Y-491250D02*
D03*
X777750Y-596750D02*
D03*
X720000Y-206100D02*
D03*
X777750Y-311600D02*
D03*
X720000Y78750D02*
D03*
X777750Y-26750D02*
D03*
D32*
X20000Y-368500D02*
D03*
Y-383500D02*
D03*
D33*
X698000Y-560800D02*
D03*
Y-545200D02*
D03*
X698250Y-597050D02*
D03*
Y-581450D02*
D03*
X728500Y-596950D02*
D03*
Y-581350D02*
D03*
X759000Y-596950D02*
D03*
Y-581350D02*
D03*
Y-560800D02*
D03*
Y-545200D02*
D03*
X698000Y-275650D02*
D03*
Y-260050D02*
D03*
Y-311800D02*
D03*
Y-296200D02*
D03*
X728500Y-311800D02*
D03*
Y-296200D02*
D03*
X759000Y-311800D02*
D03*
Y-296200D02*
D03*
Y-275650D02*
D03*
Y-260050D02*
D03*
X44500Y-537450D02*
D03*
Y-553050D02*
D03*
X-99500Y-580800D02*
D03*
Y-565200D02*
D03*
X-78000Y-588850D02*
D03*
Y-573250D02*
D03*
X-59500Y-573300D02*
D03*
Y-557700D02*
D03*
X44750Y-591550D02*
D03*
Y-575950D02*
D03*
X462000Y-123450D02*
D03*
Y-139050D02*
D03*
X483000D02*
D03*
Y-123450D02*
D03*
X41750Y-502050D02*
D03*
Y-486450D02*
D03*
X19750Y-502050D02*
D03*
Y-486450D02*
D03*
X63750Y-502050D02*
D03*
Y-486450D02*
D03*
X-71250D02*
D03*
Y-502050D02*
D03*
X698000Y9200D02*
D03*
Y24800D02*
D03*
Y-26950D02*
D03*
Y-11350D02*
D03*
X728500Y-26950D02*
D03*
Y-11350D02*
D03*
X759000Y-26950D02*
D03*
Y-11350D02*
D03*
Y9200D02*
D03*
Y24800D02*
D03*
X78500Y-226800D02*
D03*
Y-211200D02*
D03*
X113000Y-565050D02*
D03*
Y-549450D02*
D03*
X149125Y-565050D02*
D03*
Y-549450D02*
D03*
X185250Y-565050D02*
D03*
Y-549450D02*
D03*
X245250Y-416550D02*
D03*
Y-400950D02*
D03*
X-103250Y-149800D02*
D03*
Y-134200D02*
D03*
Y-112800D02*
D03*
Y-97200D02*
D03*
X69000Y-399800D02*
D03*
Y-384200D02*
D03*
X728500Y-545200D02*
D03*
Y-560800D02*
D03*
X439000Y-123450D02*
D03*
Y-139050D02*
D03*
X390000Y-123450D02*
D03*
Y-139050D02*
D03*
X728500Y-260050D02*
D03*
Y-275650D02*
D03*
X294000Y-112050D02*
D03*
Y-96450D02*
D03*
X-48250Y-486450D02*
D03*
Y-502050D02*
D03*
X728500Y24800D02*
D03*
Y9200D02*
D03*
X92000Y-351200D02*
D03*
Y-366800D02*
D03*
X46000Y-351400D02*
D03*
Y-367000D02*
D03*
X69000Y-351200D02*
D03*
Y-366800D02*
D03*
X92000Y-384200D02*
D03*
Y-399800D02*
D03*
X122750Y-211450D02*
D03*
Y-227050D02*
D03*
X158500Y-211450D02*
D03*
Y-227050D02*
D03*
X133000Y-415800D02*
D03*
Y-400200D02*
D03*
X194250Y-211450D02*
D03*
Y-227050D02*
D03*
X176375Y-211450D02*
D03*
Y-227050D02*
D03*
X194000Y-415800D02*
D03*
Y-400200D02*
D03*
X111000D02*
D03*
Y-415800D02*
D03*
X155000D02*
D03*
Y-400200D02*
D03*
X217000Y-400400D02*
D03*
Y-416000D02*
D03*
X140625Y-211450D02*
D03*
Y-227050D02*
D03*
X212125Y-211450D02*
D03*
Y-227050D02*
D03*
X230000Y-211450D02*
D03*
Y-227050D02*
D03*
X277000Y-537200D02*
D03*
Y-552800D02*
D03*
X63000Y-287200D02*
D03*
Y-302800D02*
D03*
Y-269800D02*
D03*
Y-254200D02*
D03*
X366000Y-552800D02*
D03*
Y-537200D02*
D03*
D34*
X755999Y-670996D02*
D03*
X699999D02*
D03*
X756000Y-632000D02*
D03*
X700000D02*
D03*
X755999Y-385847D02*
D03*
X699999D02*
D03*
X756000Y-346850D02*
D03*
X700000D02*
D03*
X-209250Y-442250D02*
D03*
X-265250D02*
D03*
X-209250Y-400000D02*
D03*
X-265250D02*
D03*
X-131250D02*
D03*
X-187250D02*
D03*
X-131250Y-442250D02*
D03*
X-187250D02*
D03*
X755999Y-100997D02*
D03*
X699999D02*
D03*
X756000Y-62000D02*
D03*
X700000D02*
D03*
X-130850Y-341000D02*
D03*
X-181650D02*
D03*
D35*
X740200Y-730000D02*
D03*
X755800D02*
D03*
X740200Y-713000D02*
D03*
X755800D02*
D03*
X964800Y-445000D02*
D03*
X949200D02*
D03*
X964800Y-462000D02*
D03*
X949200D02*
D03*
X740200Y-444850D02*
D03*
X755800D02*
D03*
X740200Y-427850D02*
D03*
X755800D02*
D03*
X964800Y-159850D02*
D03*
X949200D02*
D03*
X964800Y-176850D02*
D03*
X949200D02*
D03*
X422800Y-137250D02*
D03*
X407200D02*
D03*
X274200Y-161250D02*
D03*
X289800D02*
D03*
X254800D02*
D03*
X239200D02*
D03*
X220800D02*
D03*
X205200D02*
D03*
X-81050Y-404000D02*
D03*
X-65450D02*
D03*
X-65700Y-375000D02*
D03*
X-81300D02*
D03*
X-43050Y-253500D02*
D03*
X-27450D02*
D03*
X740200Y-160000D02*
D03*
X755800D02*
D03*
X740200Y-143000D02*
D03*
X755800D02*
D03*
X964800Y125000D02*
D03*
X949200D02*
D03*
X964800Y108000D02*
D03*
X949200D02*
D03*
X-22800Y-174000D02*
D03*
X-7200D02*
D03*
X-22800Y-196750D02*
D03*
X-7200D02*
D03*
X-15700Y-619500D02*
D03*
X-31300D02*
D03*
X180600Y-626000D02*
D03*
X165000D02*
D03*
D36*
X903250Y-654000D02*
D03*
X835000Y-517000D02*
D03*
X903250Y-368850D02*
D03*
X835000Y-231850D02*
D03*
X903250Y-84000D02*
D03*
X835000Y53000D02*
D03*
D37*
X802000Y-679400D02*
D03*
Y-628600D02*
D03*
X936250Y-491600D02*
D03*
Y-542400D02*
D03*
X802000Y-394250D02*
D03*
Y-343450D02*
D03*
X936250Y-206450D02*
D03*
Y-257250D02*
D03*
X802000Y-109400D02*
D03*
Y-58600D02*
D03*
X936250Y78400D02*
D03*
Y27600D02*
D03*
D38*
X-73750Y-323500D02*
D03*
X-64250Y-344500D02*
D03*
X-83250D02*
D03*
D39*
X-156250Y-239750D02*
D03*
D40*
X436000Y-18000D02*
D03*
Y-80500D02*
D03*
D41*
X125250Y-145750D02*
D03*
X169250D02*
D03*
D42*
X698000Y-497000D02*
D03*
Y-212250D02*
D03*
Y73000D02*
D03*
X-73250Y-143000D02*
D03*
D43*
X698000Y-523000D02*
D03*
Y-238250D02*
D03*
Y47000D02*
D03*
X-73250Y-117000D02*
D03*
D44*
X688750Y-713000D02*
D03*
X720000D02*
D03*
X1013750Y-461500D02*
D03*
X982500D02*
D03*
X688750Y-427850D02*
D03*
X720000D02*
D03*
X1013750Y-176350D02*
D03*
X982500D02*
D03*
X185000Y-14500D02*
D03*
X153750D02*
D03*
X688750Y-143000D02*
D03*
X720000D02*
D03*
X1013750Y108500D02*
D03*
X982500D02*
D03*
D45*
X161000Y-57250D02*
D03*
Y-100250D02*
D03*
X-214500Y-153250D02*
D03*
Y-110250D02*
D03*
D46*
X341000Y-82500D02*
D03*
X381000D02*
D03*
D47*
X113250Y-494750D02*
D03*
Y-514250D02*
D03*
X149375Y-494750D02*
D03*
Y-514250D02*
D03*
X185500Y-494750D02*
D03*
Y-514250D02*
D03*
D48*
X389000Y-477500D02*
D03*
X375000D02*
D03*
D49*
X464000Y-352750D02*
D03*
Y-384000D02*
D03*
Y-279750D02*
D03*
Y-311000D02*
D03*
Y-206750D02*
D03*
Y-238000D02*
D03*
D50*
X339000Y-59500D02*
D03*
Y-25500D02*
D03*
X238250Y-59250D02*
D03*
Y-25250D02*
D03*
X234000Y-103250D02*
D03*
Y-137250D02*
D03*
X258000Y-103250D02*
D03*
Y-137250D02*
D03*
X210000Y-103250D02*
D03*
Y-137250D02*
D03*
X210750Y-59250D02*
D03*
Y-25250D02*
D03*
X416500Y-384500D02*
D03*
Y-350500D02*
D03*
X415500Y-313500D02*
D03*
Y-279500D02*
D03*
Y-241000D02*
D03*
Y-207000D02*
D03*
X-137500Y-126750D02*
D03*
Y-92750D02*
D03*
X-164500Y-127250D02*
D03*
Y-93250D02*
D03*
D51*
X39750Y-113750D02*
D03*
Y-135750D02*
D03*
D52*
X289000Y-22250D02*
D03*
Y-73304D02*
D03*
D53*
X246000Y-509000D02*
D03*
Y-580250D02*
D03*
X332000Y-579250D02*
D03*
Y-508000D02*
D03*
D54*
X232000Y-674000D02*
D03*
X257000Y-673750D02*
D03*
X207000D02*
D03*
X182000D02*
D03*
X-206000Y50250D02*
D03*
X-231000Y50000D02*
D03*
X-181000D02*
D03*
X-156000D02*
D03*
X-72000Y54250D02*
D03*
X-47000Y54000D02*
D03*
X-22000D02*
D03*
X464000Y-677750D02*
D03*
X439000D02*
D03*
X389000Y-678000D02*
D03*
X414000Y-677750D02*
D03*
X364000D02*
D03*
X339000D02*
D03*
D55*
X1068000Y-531000D02*
D03*
Y-313000D02*
D03*
Y-95000D02*
D03*
X-289000Y-564000D02*
D03*
X-290000Y-50000D02*
D03*
D56*
X-107450Y-656600D02*
D03*
D57*
X-93600Y-685000D02*
D03*
X-79750Y-656600D02*
D03*
X-65900Y-685000D02*
D03*
X-52050Y-656600D02*
D03*
X-38200Y-685000D02*
D03*
X-24350Y-656600D02*
D03*
X-10500Y-685000D02*
D03*
X3350Y-656600D02*
D03*
D58*
X72900Y-670800D02*
D03*
X-177000D02*
D03*
D59*
X-365246Y-244250D02*
D03*
Y-354250D02*
D03*
X544000Y-600000D02*
D03*
X544500Y-408667D02*
D03*
Y-217333D02*
D03*
X545000Y-26000D02*
D03*
D60*
X-265246Y-324250D02*
D03*
Y-274250D02*
D03*
D61*
X426000Y-505950D02*
D03*
D62*
Y-531350D02*
D03*
Y-556750D02*
D03*
Y-582150D02*
D03*
Y-607550D02*
D03*
D63*
X619000Y-600000D02*
D03*
X619500Y-408667D02*
D03*
Y-217333D02*
D03*
X620000Y-26000D02*
D03*
D64*
X1124000Y83000D02*
D03*
X-336000Y-707000D02*
D03*
Y83000D02*
D03*
X1124000Y-707000D02*
D03*
D65*
X1098000Y-541000D02*
D03*
X1108000Y-531000D02*
D03*
Y-551000D02*
D03*
X1098000Y-561000D02*
D03*
X1118000D02*
D03*
X1128000Y-551000D02*
D03*
X1138000Y-541000D02*
D03*
Y-561000D02*
D03*
X1118000Y-541000D02*
D03*
X1128000Y-571000D02*
D03*
X1118000Y-521000D02*
D03*
X1128000Y-511000D02*
D03*
X1138000Y-501000D02*
D03*
Y-521000D02*
D03*
X1118000Y-501000D02*
D03*
X1128000Y-531000D02*
D03*
X1098000Y-501000D02*
D03*
X1108000Y-491000D02*
D03*
Y-511000D02*
D03*
X1088000Y-491000D02*
D03*
X1098000Y-521000D02*
D03*
X1028000Y-551000D02*
D03*
X1038000Y-541000D02*
D03*
X1028000Y-531000D02*
D03*
X1038000Y-561000D02*
D03*
X998000D02*
D03*
X1008000Y-551000D02*
D03*
X1018000Y-541000D02*
D03*
Y-561000D02*
D03*
X998000Y-541000D02*
D03*
X1008000Y-571000D02*
D03*
X998000Y-521000D02*
D03*
X1008000Y-511000D02*
D03*
X1018000Y-501000D02*
D03*
Y-521000D02*
D03*
X998000Y-501000D02*
D03*
X1008000Y-531000D02*
D03*
X1028000Y-511000D02*
D03*
X1038000Y-501000D02*
D03*
X1048000Y-491000D02*
D03*
X1028000D02*
D03*
X1038000Y-521000D02*
D03*
X1108000Y-571000D02*
D03*
X1148000Y-571000D02*
D03*
Y-551000D02*
D03*
Y-531000D02*
D03*
Y-511000D02*
D03*
Y-491000D02*
D03*
X1128000D02*
D03*
X1078000Y-501000D02*
D03*
X1058000D02*
D03*
X1068000Y-491000D02*
D03*
X1008000D02*
D03*
X988000D02*
D03*
Y-511000D02*
D03*
Y-531000D02*
D03*
Y-551000D02*
D03*
Y-571000D02*
D03*
X1028000D02*
D03*
X1048000D02*
D03*
X1058000Y-561000D02*
D03*
X1078000D02*
D03*
X1088000Y-571000D02*
D03*
X1068000D02*
D03*
X1098000Y-323000D02*
D03*
X1108000Y-313000D02*
D03*
Y-333000D02*
D03*
X1098000Y-343000D02*
D03*
X1118000D02*
D03*
X1128000Y-333000D02*
D03*
X1138000Y-323000D02*
D03*
Y-343000D02*
D03*
X1118000Y-323000D02*
D03*
X1128000Y-353000D02*
D03*
X1118000Y-303000D02*
D03*
X1128000Y-293000D02*
D03*
X1138000Y-283000D02*
D03*
Y-303000D02*
D03*
X1118000Y-283000D02*
D03*
X1128000Y-313000D02*
D03*
X1098000Y-283000D02*
D03*
X1108000Y-273000D02*
D03*
Y-293000D02*
D03*
X1088000Y-273000D02*
D03*
X1098000Y-303000D02*
D03*
X1028000Y-333000D02*
D03*
X1038000Y-323000D02*
D03*
X1028000Y-313000D02*
D03*
X1038000Y-343000D02*
D03*
X998000D02*
D03*
X1008000Y-333000D02*
D03*
X1018000Y-323000D02*
D03*
Y-343000D02*
D03*
X998000Y-323000D02*
D03*
X1008000Y-353000D02*
D03*
X998000Y-303000D02*
D03*
X1008000Y-293000D02*
D03*
X1018000Y-283000D02*
D03*
Y-303000D02*
D03*
X998000Y-283000D02*
D03*
X1008000Y-313000D02*
D03*
X1028000Y-293000D02*
D03*
X1038000Y-283000D02*
D03*
X1048000Y-273000D02*
D03*
X1028000D02*
D03*
X1038000Y-303000D02*
D03*
X1108000Y-353000D02*
D03*
X1148000Y-353000D02*
D03*
Y-333000D02*
D03*
Y-313000D02*
D03*
Y-293000D02*
D03*
Y-273000D02*
D03*
X1128000D02*
D03*
X1078000Y-283000D02*
D03*
X1058000D02*
D03*
X1068000Y-273000D02*
D03*
X1008000D02*
D03*
X988000D02*
D03*
Y-293000D02*
D03*
Y-313000D02*
D03*
Y-333000D02*
D03*
Y-353000D02*
D03*
X1028000D02*
D03*
X1048000D02*
D03*
X1058000Y-343000D02*
D03*
X1078000D02*
D03*
X1088000Y-353000D02*
D03*
X1068000D02*
D03*
X1098000Y-105000D02*
D03*
X1108000Y-95000D02*
D03*
Y-115000D02*
D03*
X1098000Y-125000D02*
D03*
X1118000D02*
D03*
X1128000Y-115000D02*
D03*
X1138000Y-105000D02*
D03*
Y-125000D02*
D03*
X1118000Y-105000D02*
D03*
X1128000Y-135000D02*
D03*
X1118000Y-85000D02*
D03*
X1128000Y-75000D02*
D03*
X1138000Y-65000D02*
D03*
Y-85000D02*
D03*
X1118000Y-65000D02*
D03*
X1128000Y-95000D02*
D03*
X1098000Y-65000D02*
D03*
X1108000Y-55000D02*
D03*
Y-75000D02*
D03*
X1088000Y-55000D02*
D03*
X1098000Y-85000D02*
D03*
X1028000Y-115000D02*
D03*
X1038000Y-105000D02*
D03*
X1028000Y-95000D02*
D03*
X1038000Y-125000D02*
D03*
X998000D02*
D03*
X1008000Y-115000D02*
D03*
X1018000Y-105000D02*
D03*
Y-125000D02*
D03*
X998000Y-105000D02*
D03*
X1008000Y-135000D02*
D03*
X998000Y-85000D02*
D03*
X1008000Y-75000D02*
D03*
X1018000Y-65000D02*
D03*
Y-85000D02*
D03*
X998000Y-65000D02*
D03*
X1008000Y-95000D02*
D03*
X1028000Y-75000D02*
D03*
X1038000Y-65000D02*
D03*
X1048000Y-55000D02*
D03*
X1028000D02*
D03*
X1038000Y-85000D02*
D03*
X1108000Y-135000D02*
D03*
X1148000Y-135000D02*
D03*
Y-115000D02*
D03*
Y-95000D02*
D03*
Y-75000D02*
D03*
Y-55000D02*
D03*
X1128000D02*
D03*
X1078000Y-65000D02*
D03*
X1058000D02*
D03*
X1068000Y-55000D02*
D03*
X1008000D02*
D03*
X988000D02*
D03*
Y-75000D02*
D03*
Y-95000D02*
D03*
Y-115000D02*
D03*
Y-135000D02*
D03*
X1028000D02*
D03*
X1048000D02*
D03*
X1058000Y-125000D02*
D03*
X1078000D02*
D03*
X1088000Y-135000D02*
D03*
X1068000D02*
D03*
X-259000Y-574000D02*
D03*
X-249000Y-564000D02*
D03*
Y-584000D02*
D03*
X-259000Y-594000D02*
D03*
X-239000D02*
D03*
X-229000Y-584000D02*
D03*
X-219000Y-574000D02*
D03*
Y-594000D02*
D03*
X-239000Y-574000D02*
D03*
X-229000Y-604000D02*
D03*
X-239000Y-554000D02*
D03*
X-229000Y-544000D02*
D03*
X-219000Y-534000D02*
D03*
Y-554000D02*
D03*
X-239000Y-534000D02*
D03*
X-229000Y-564000D02*
D03*
X-259000Y-534000D02*
D03*
X-249000Y-524000D02*
D03*
Y-544000D02*
D03*
X-269000Y-524000D02*
D03*
X-259000Y-554000D02*
D03*
X-329000Y-584000D02*
D03*
X-319000Y-574000D02*
D03*
X-329000Y-564000D02*
D03*
X-319000Y-594000D02*
D03*
X-359000D02*
D03*
X-349000Y-584000D02*
D03*
X-339000Y-574000D02*
D03*
Y-594000D02*
D03*
X-359000Y-574000D02*
D03*
X-349000Y-604000D02*
D03*
X-359000Y-554000D02*
D03*
X-349000Y-544000D02*
D03*
X-339000Y-534000D02*
D03*
Y-554000D02*
D03*
X-359000Y-534000D02*
D03*
X-349000Y-564000D02*
D03*
X-329000Y-544000D02*
D03*
X-319000Y-534000D02*
D03*
X-309000Y-524000D02*
D03*
X-329000D02*
D03*
X-319000Y-554000D02*
D03*
X-249000Y-604000D02*
D03*
X-209000Y-604000D02*
D03*
Y-584000D02*
D03*
Y-564000D02*
D03*
Y-544000D02*
D03*
Y-524000D02*
D03*
X-229000D02*
D03*
X-279000Y-534000D02*
D03*
X-299000D02*
D03*
X-289000Y-524000D02*
D03*
X-349000D02*
D03*
X-369000D02*
D03*
Y-544000D02*
D03*
Y-564000D02*
D03*
Y-584000D02*
D03*
Y-604000D02*
D03*
X-329000D02*
D03*
X-309000D02*
D03*
X-299000Y-594000D02*
D03*
X-279000D02*
D03*
X-269000Y-604000D02*
D03*
X-289000D02*
D03*
X-260000Y-60000D02*
D03*
X-250000Y-50000D02*
D03*
Y-70000D02*
D03*
X-260000Y-80000D02*
D03*
X-240000D02*
D03*
X-230000Y-70000D02*
D03*
X-220000Y-60000D02*
D03*
Y-80000D02*
D03*
X-240000Y-60000D02*
D03*
X-230000Y-90000D02*
D03*
X-240000Y-40000D02*
D03*
X-230000Y-30000D02*
D03*
X-220000Y-20000D02*
D03*
Y-40000D02*
D03*
X-240000Y-20000D02*
D03*
X-230000Y-50000D02*
D03*
X-260000Y-20000D02*
D03*
X-250000Y-10000D02*
D03*
Y-30000D02*
D03*
X-270000Y-10000D02*
D03*
X-260000Y-40000D02*
D03*
X-330000Y-70000D02*
D03*
X-320000Y-60000D02*
D03*
X-330000Y-50000D02*
D03*
X-320000Y-80000D02*
D03*
X-360000D02*
D03*
X-350000Y-70000D02*
D03*
X-340000Y-60000D02*
D03*
Y-80000D02*
D03*
X-360000Y-60000D02*
D03*
X-350000Y-90000D02*
D03*
X-360000Y-40000D02*
D03*
X-350000Y-30000D02*
D03*
X-340000Y-20000D02*
D03*
Y-40000D02*
D03*
X-360000Y-20000D02*
D03*
X-350000Y-50000D02*
D03*
X-330000Y-30000D02*
D03*
X-320000Y-20000D02*
D03*
X-310000Y-10000D02*
D03*
X-330000D02*
D03*
X-320000Y-40000D02*
D03*
X-250000Y-90000D02*
D03*
X-210000Y-90000D02*
D03*
Y-70000D02*
D03*
Y-50000D02*
D03*
Y-30000D02*
D03*
Y-10000D02*
D03*
X-230000D02*
D03*
X-280000Y-20000D02*
D03*
X-300000D02*
D03*
X-290000Y-10000D02*
D03*
X-350000D02*
D03*
X-370000D02*
D03*
Y-30000D02*
D03*
Y-50000D02*
D03*
Y-70000D02*
D03*
Y-90000D02*
D03*
X-330000D02*
D03*
X-310000D02*
D03*
X-300000Y-80000D02*
D03*
X-280000D02*
D03*
X-270000Y-90000D02*
D03*
X-290000D02*
D03*
M02*
