M48
;Layer_Color=9474304
;FILE_FORMAT=4:4
METRIC,LZ
;TYPE=PLATED
T1F00S00C0.4000
T2F00S00C0.6000
T3F00S00C0.9000
T4F00S00C1.0000
T5F00S00C1.7000
T6F00S00C3.2000
T7F00S00C4.2000
%
T01
X01038Y-00701
X01048Y-00691
X01038Y-00681
Y-00661
X01048Y-00671
X01068
X01058Y-00661
Y-00681
X01078Y-00661
X01068Y-00651
X01088
X01078Y-00641
X01058
Y-00621
X01048Y-00631
X01038Y-00621
Y-00641
X01048Y-00651
Y-00611
X01068
Y-00631
X01078Y-00621
X01088Y-00631
X01098Y-00621
Y-00641
X01108Y-00631
X01118Y-00621
X01108Y-00611
X01128
X01118Y-00601
X01098
X01088Y-00611
X01078Y-00601
X01058
X01038
X01048Y-00591
Y-00571
X01058Y-00561
X01038
Y-00581
X01058
X01068Y-00571
X01078Y-00581
Y-00561
X01098
Y-00581
X01108Y-00571
X01118Y-00581
X01108Y-00591
X01128
X01128Y-00571
X01138Y-00581
X01148Y-00571
X01138Y-00561
X01148Y-00551
X01128
X01108
X01098Y-00541
Y-00521
X01108Y-00531
X01118Y-00521
X01108Y-00511
X01128
X01148
X01138Y-00501
X01148Y-00491
X01128
X01108
X01118Y-00501
X01098
X01088Y-00491
X01078Y-00501
X01058
X01038
X01048Y-00491
X01068
X01038Y-00521
Y-00541
X01118
X01128Y-00531
X01148
X01138Y-00541
X01138Y-00521
X01118Y-00561
X01088Y-00571
Y-00591
X01068
X01138Y-00601
X01148Y-00591
X01028
Y-00571
X01018Y-00561
X01028Y-00551
X01008
Y-00531
X01018Y-00541
X01028Y-00531
X01018Y-00521
X01028Y-00511
X01008
X00998Y-00521
Y-00541
X00988Y-00531
X00978Y-00541
Y-00521
X00988Y-00511
X00998Y-00501
X01018
X01028Y-00491
X01008
X00988
X00978Y-00501
Y-00561
X00988Y-00551
X00998Y-00561
Y-00581
X01008Y-00571
X01018Y-00581
X01008Y-00591
X01018Y-00601
X01008Y-00611
Y-00631
X01018Y-00621
Y-00641
X01008Y-00651
X01018Y-00661
Y-00681
X00998
X01008Y-00691
X00998Y-00701
X01008Y-00711
X00988
Y-00691
Y-00671
X01008
X00998Y-00661
Y-00641
Y-00621
Y-00601
X00988Y-00591
Y-00571
X00978Y-00581
Y-00601
X00988Y-00611
Y-00631
Y-00651
X00978Y-00641
Y-00621
Y-00661
Y-00681
Y-00701
X00968Y-00691
Y-00671
Y-00711
X01028
X01018Y-00701
X01028Y-00691
Y-00671
Y-00651
Y-00631
Y-00611
X00715Y-00627
Y-00647
Y-00667
X00705Y-00657
Y-00637
X00685
X00695Y-00627
Y-00647
X00685Y-00657
X00695Y-00667
X00685Y-00677
X00705
X00695Y-00687
X0071475Y-0068725
X006455Y-006825
X0063775Y-007015
X006385Y-0073125
X006495Y-0075275
X0070075Y-0075625
X007365
X0063825Y-00662
X0064Y-0062
Y-006
X0065Y-0059
Y-0057
X0064Y-0058
Y-0056
X0065Y-0061
X0064Y-0047
Y-0045
X0065Y-0046
X0066Y-0045
Y-0047
X0067Y-0046
X0068Y-0047
X0069Y-0046
X007Y-0047
X0071Y-0046
X0072Y-0047
X0073Y-0046
X0074Y-0047
X0075Y-0046
X0076Y-0047
X0078
X008
X0081Y-0046
X0079
X0077
X007475Y-0053725
X0072Y-00521
X0065Y-0044
X0066Y-0043
X0064
X0063Y-0044
Y-0046
X0061
X0062Y-0045
Y-0047
X006Y-0045
X0061Y-0044
X0062Y-0043
X006
X005565Y-0043975
X0056825Y-0045475
X005665Y-004745
X0054025Y-0046325
X005245Y-0043925
X0050025Y-0043325
X0042025Y-00457
X00399Y-00495
X003828Y-005372
X00376Y-00625
X004015Y-0065475
X00427Y-00657
X0049225Y-0063575
X00529Y-0062475
X0051275Y-0060525
X005255Y-0057975
X005355Y-00554
X0056675Y-00556
X00575Y-005395
X0061Y-0055
Y-0057
X006Y-0056
Y-0058
X0062
Y-0056
X0063Y-0057
Y-0055
X006Y-006
Y-0062
X0062Y-0062
X006155Y-0065
X0061475Y-0067725
X006135Y-00712
X0058975Y-0071875
X005915Y-00692
X00592Y-0066375
X00563Y-00676
X0056Y-007055
X00563Y-0073675
X00535Y-0072525
X0053675Y-0068825
X00545Y-00646
X005645Y-006215
X0056025Y-00576
X00492Y-005855
X0049775Y-0055475
X00294Y-00528
X002855Y-0047525
X0028425Y-0042725
X00276Y-0057975
X0058975Y-007545
X0061475Y-007415
X00195Y-0062625
X0014475Y-006255
X000705Y-0061225
X00057367Y-00591635
X0005725Y-0055275
X000445Y-0052775
X000205Y-004755
X0001225Y-004435
X000775Y-004375
X000955Y-0044525
X0011875Y-004325
X001415Y-004305
X00167Y-0043375
X001725Y-0046525
X0014875Y-004705
X001115Y-0046975
X0009625Y-004905
X00198347Y-00426572
X002305Y-004265
X-00115Y-00427
Y-00447
X-00125Y-00457
Y-00437
X-000455Y-005395
X-00209Y-00544
X-00229
X-00249
Y-00564
X-00239Y-00554
X-00259
Y-00574
X-00249Y-00584
X-00259Y-00594
X-00239
X-00229Y-00584
X-00209
X-00219Y-00574
X-00209Y-00564
X-00219Y-00554
Y-00534
X-00209Y-00524
X-00229
X-00249
X-00239Y-00534
X-00259
X-00269Y-00524
X-00279Y-00534
X-00299
X-00319
X-00339
X-00329Y-00544
Y-00564
X-00339Y-00554
Y-00574
X-00329Y-00584
X-00349
Y-00564
X-00359Y-00574
Y-00554
X-00349Y-00544
X-00359Y-00534
X-00349Y-00524
X-00329
X-00309
X-00289
X-00295Y-00487
X-00275
X-00285Y-00477
X-00275Y-00467
X-00285Y-00457
X-00275Y-00447
X-00295
Y-00467
X-00265Y-00457
Y-00477
Y-00437
X-00285
X-00275Y-00427
X-00295
X-00195
X-00205Y-00437
Y-00457
X-00195Y-00447
X-00229Y-00564
X-00239Y-00574
X-00219Y-00594
X-00209Y-00604
X-00229Y-00604
X-00249
X-00269
X-00279Y-00594
X-00299
X-00319
X-00339
X-00329Y-00604
X-00349
X-00359Y-00594
X-00369Y-00584
Y-00564
Y-00544
Y-00524
X-00319Y-00554
Y-00574
X-00309Y-00604
X-00289
X-00369
X-00295Y-00407
X-00275
X-00285Y-00417
X-00265
Y-00397
X-00285
X-00275Y-00387
X-00295
Y-00357
X-00275
X-00285Y-00347
X-00305
X-00325
X-00315Y-00337
X-00325Y-00327
X-00315Y-00317
X-00335
Y-00337
Y-00357
X-00315
X-00305Y-00327
X-00295Y-00337
X-00325Y-00307
X-00315Y-00297
X-00325Y-00287
Y-00267
X-00315Y-00277
Y-00257
X-00325Y-00247
X-00315Y-00237
X-00325Y-00227
X-00315Y-00217
X-00335
Y-00237
Y-00257
Y-00277
Y-00297
X-00325Y-00207
X-00315Y-00197
X-00335
Y-00177
X-00325Y-00187
X-00315Y-00177
X-00325Y-00167
X-00315Y-00157
X-00335
X-00325Y-00147
X-00315Y-00137
X-00325Y-00127
X-00335Y-00137
Y-00117
X-00315
X-0031Y-0009
X-003Y-0008
X-0032
X-0034
X-0033Y-0007
X-0035
Y-0005
X-0034Y-0006
X-0032
Y-0004
X-0033Y-0005
X-0034Y-0004
X-0033Y-0003
X-0035
X-0036Y-0004
Y-0006
X-0037Y-0005
Y-0007
X-0036Y-0008
X-0035Y-0009
X-0033
X-0037
Y-0003
X-0025
Y-0005
X-0024Y-0004
X-0026
Y-0006
X-0025Y-0007
X-0026Y-0008
X-0024
X-0023Y-0007
X-0021
X-0022Y-0006
X-0021Y-0005
X-0022Y-0004
X-0021Y-0003
X-0023
Y-0005
X-0024Y-0006
X-002
X-0018
X-0019Y-0005
X-0017
Y-0003
X-0016Y-0004
Y-0006
X-0017Y-0007
X-0019
X-0018Y-0008
X-0019Y-0009
X-002Y-0008
X-0022
X-0021Y-0009
X-0023Y-0009
X-0025
X-0027
X-0028Y-0008
X-0029Y-0009
X-0024775Y-001585
X-00245Y-00197
X-00225
X-00235Y-00207
Y-00227
X-00225Y-00217
X-00245
X-00255Y-00227
Y-00207
X-00275
Y-00227
X-00265Y-00217
Y-00237
X-00275Y-00247
X-00255
X-00235
X-00225Y-00237
X-00245
X-00225Y-00257
X-00235Y-00267
X-00225Y-00277
X-00235Y-00287
X-00245Y-00347
X-00255Y-00357
X-00195Y-00387
Y-00407
X-00205Y-00417
Y-00397
X-002145Y-001775
X-0018225Y-0015775
X-0018Y-0004
X-0019Y-0003
X-002Y-0004
X-00265Y-00197
X-00137Y-00174
X-00128Y-00159
X-001035Y-0016025
X-0010325Y-001235
X-0009Y-0009
X-0008Y-0008
X-0007Y-0009
Y-0007
X-0006Y-0008
X-0005Y-0009
X-0004Y-0008
X-0005Y-0007
X-0004Y-0006
X-0005Y-0005
Y-0003
X-0004Y-0004
X-0006
X-0007Y-0003
Y-0005
X-0006Y-0006
X-0008
X-001
X-0009Y-0007
X-0011
Y-0005
X-0009
Y-0003
X-001Y-0004
X-0008
X-0011Y-0003
X-0015
Y-0005
Y-0007
X-00053Y-00133
X-00038Y-0018575
X-0002825Y-0023525
X-00023495Y-00305467
X-000335Y-0034775
X0000375Y-0038175
X0003525Y-0038375
X00049Y-004215
X0008402Y-0042525
X0010525Y-0039075
X00104Y-0037575
X0011575Y-00382
Y-00369
X001345Y-0034175
X00134Y-0032725
X00143Y-00307
X001465Y-0029275
X00177Y-0029725
X001775Y-00287
X001685Y-002765
X00195Y-00275
X00217218Y-00280003
X0021825Y-0029775
X00187Y-002985
X0016825Y-00315
X001585Y-00343
X00157Y-0035425
X0017775Y-00354
X001845Y-00342
X001975Y-0034852
X002025Y-003575
X00203Y-003905
X00191613Y-00389642
X0017275Y-0038975
X0014475Y-0039975
X002055Y-004005
X0022975Y-0038
X0023375Y-0026575
X00221Y-00249
X002125Y-002395
X002305Y-00236
X00184649Y-0024119
X001625Y-0024125
X00149Y-0024102
X001205Y-0024575
X000875Y-002475
X00077Y-002555
X00074Y-0027925
X0006375Y-0031775
X00090975Y-00311896
X0009075Y-00325
X0008275Y-0033975
X00092Y-0022725
X001085Y-00206
X0014175Y-0018825
X00155Y-00157
X00175
X00165Y-00147
X00185
Y-00127
X00175Y-00137
X00165Y-00127
X00155Y-00137
Y-00117
X00175
X00165Y-00107
X00185
X00175Y-00097
X00155
Y-00067
X00175
X00165Y-00057
X00185
X00205
X00225
X00215Y-00067
X00225Y-00077
X00215Y-00087
X00235
Y-00067
Y-00107
X00215
X00225Y-00097
X00205
Y-00077
X00195Y-00067
X00165Y-00037
X00155Y-00047
X0013Y-0005
Y-0003
X0012Y-0004
X0011Y-0003
Y-0005
X0009
X001Y-0006
X0009Y-0007
X0008Y-0008
Y-0006
Y-0004
X001
X0009Y-0003
X0007Y-0005
Y-0007
X0008Y-001
Y-0012
X001
X0009Y-0011
X0011
X001Y-001
X0011Y-0009
X0009
X001Y-0008
X0011Y-0007
X0012Y-0008
X0013Y-0007
Y-0009
Y-0011
X0012Y-001
Y-0012
X0011Y-0013
X0009
X001Y-0014
X0008
X0009Y-0015
X0008Y-0016
X001
X0011Y-0015
X000405Y-0015875
X000605Y-002115
X0004025Y-00257
X0004Y-0008
X0003Y-0009
X0002Y-0008
X0
X0001Y-0009
Y-0007
X0Y-0006
X0002
Y-0004
X0
X0001Y-0005
X0001Y-0003
X0003Y-0003
X0005
X0004Y-0004
Y-0006
X0003Y-0005
Y-0007
X0012Y-0006
X00205Y-00137
X00215Y-00127
X00225Y-00137
X00235Y-00127
X00202Y-00186
X-0001575Y-0040225
X-0006545Y-00390125
X-0008125Y-0042
X-00115Y-00407
X-00125Y-00417
Y-00397
X-00115Y-00387
Y-00367
X-00125Y-00377
X-00135Y-00367
X-00145Y-00377
Y-00357
Y-00337
X-00115Y-00327
Y-00347
X002975Y-003475
Y-0036
X00299Y-003795
X00332Y-00366
X0033275Y-0033425
X002975Y-00319
X0029825Y-0026675
X003465Y-0026375
X00345Y-00177
X00325
X00305
X00285
X00265
Y-00137
X00275Y-00127
X00255
X00245Y-00137
X00285
X00295Y-00127
X00335
Y-00147
Y-00167
X00345Y-00157
Y-00137
Y-00117
X00335Y-00107
Y-00087
X00325Y-00077
X00305
X00285
X00275Y-00087
X00265Y-00077
Y-00097
X00275Y-00107
X00255
Y-00087
X00245Y-00077
Y-00097
X00255Y-00067
X00275
X00265Y-00057
X00285
X00295Y-00067
X00315
X00335
X00345Y-00077
Y-00057
X00325
X00305
X00307Y-0009675
X00375Y-00087
X00385Y-00077
X00395Y-00087
X00415
X00405Y-00077
Y-00097
X00415Y-00107
X00395
X00375
X00385Y-00097
X00425
Y-00077
X00435Y-00087
X00445Y-00077
Y-00097
X00465
X00455Y-00107
X00435
X00455Y-00087
X00465Y-00077
Y-00047
X00479Y-000425
X0049Y-00052
X0049875Y-00063
X004995Y-000785
Y-00096
Y-001125
X0049925Y-00129
X0049525Y-00144
X004845Y-001545
X00473Y-0016225
X00464Y-0017425
Y-0019075
Y-0025
Y-00262
X004895Y-0025925
X0051175Y-00246
X00524Y-002645
X005425Y-0025075
X005685Y-0024375
X0057Y-002175
X00566Y-0019075
X006Y-0019
X0062
X0061Y-002
X0063
Y-0018
X0061
X006Y-0021
Y-0023
X0061Y-0024
X0063
Y-0026
X0061
X0062Y-0025
X006
X0056025Y-0026625
X0056325Y-00323
X0057275Y-0034875
X006Y-0035
X0062
Y-0037
X0061Y-0036
Y-0038
X0062Y-0039
X006
Y-0041
X0056925Y-00412
X0056575Y-00376
X00531Y-0037675
X0051625Y-0035875
X0054725Y-0035375
X0052325Y-0032725
X0050652Y-003155
X00489Y-0032725
X00464Y-00324
Y-00335
Y-00396
Y-00409
X0032375Y-0041425
X0024925Y-00292
X0025225Y-0027975
X0026125Y-0021975
X0027775Y-0021375
X0029025Y-002045
Y-002235
X00303Y-00214
X00244Y-00201
X00245Y-00057
X00375Y-00037
X00385Y-00047
X00395Y-00037
X00415
X00405Y-00047
X00425
X00435Y-00037
X00445Y-00047
X00455Y-00037
X005305Y-00063
X005635
X00548Y-00084
X0053225Y-0010675
X005635Y-001095
X0061Y-0011
X0063
Y-0009
Y-0007
X0061
X0062Y-0006
X006
X0061Y-0005
X006Y-0004
X0063Y-0005
X0062Y-0008
X0061Y-0009
X0062Y-001
Y-0012
X006Y-0008
Y-0037
X0063Y-0036
Y-0038
X0064Y-0039
Y-0041
X0065Y-004
Y-0042
X0066Y-0041
Y-0039
X0065Y-0038
Y-0036
X0066Y-0037
Y-0035
X0064
Y-0037
X00685Y-0037185
X00695Y-0036185
X00685Y-0035185
X00705
Y-0037185
X00715Y-0036185
Y-0038185
X00705Y-0039185
X00685
X00695Y-0038185
Y-0040185
X00715Y-00402
Y-0034185
X00695
X00677Y-003145
X0064Y-0025
Y-0023
Y-0021
X0065Y-0022
X0066Y-0021
Y-0023
X0065Y-0024
Y-002
X0066Y-0019
X0064
X0065Y-0018
X0069Y-0018
X007Y-0019
X0071Y-0018
X0072Y-0019
X0073Y-0018
X0074Y-0019
X0075Y-0018
X0076Y-0019
X0078
X008
X0081Y-0018
X0079
X0077
X007475Y-0025225
X0072Y-0023585
X00715Y-00117
X00695
X00685Y-00107
X00705
X00715Y-00097
Y-00077
X00705Y-00087
X00685
X00695Y-00077
X00685Y-00067
X00705
X00695Y-00057
X00715
X00695Y-00097
X0064Y-0008
Y-0006
Y-0004
X00978Y-00045
X00988Y-00055
Y-00035
X01008
Y-00055
X01018Y-00045
X01028Y-00055
X01018Y-00065
X01028Y-00075
Y-00095
X01018Y-00085
Y-00105
X01028Y-00115
X01008
Y-00095
X00998Y-00105
Y-00085
X01008Y-00075
X00998Y-00065
Y-00045
X00988Y-00075
X00978Y-00065
Y-00085
X00988Y-00095
Y-00115
X00978Y-00105
Y-00125
X00998
X01018
X01028Y-00135
X01008
X00988
Y-00213
X01008
X01018Y-00203
X00998
Y-00223
X01018
X01008Y-00233
X01018Y-00243
X01008Y-00253
Y-00273
X01018Y-00263
X01028Y-00273
X01018Y-00283
X01028Y-00293
Y-00313
X01018Y-00303
Y-00323
X01028Y-00333
X01008
Y-00313
X00998Y-00323
Y-00303
X01008Y-00293
X00998Y-00283
Y-00263
X00988Y-00273
Y-00253
Y-00233
X00998Y-00243
X00978
Y-00223
Y-00203
Y-00263
Y-00283
Y-00303
X00988Y-00293
Y-00313
Y-00333
X00998Y-00343
Y-00363
X01008Y-00353
X01018Y-00363
X01028Y-00353
X01018Y-00343
X01028Y-00373
X01008
X01018Y-00383
X01008Y-00393
X01018Y-00403
X01008Y-00413
X00998Y-00403
Y-00423
X00988Y-00413
X00978Y-00423
Y-00403
X00988Y-00393
X00978Y-00383
Y-00363
X00988Y-00353
Y-00373
X00998Y-00383
X01028Y-00393
Y-00413
X01018Y-00423
X00978Y-00343
Y-00323
X01028Y-00253
Y-00233
Y-00213
Y-00035
X01048
Y-00055
X01058Y-00065
X01038
Y-00045
X01058
X01068Y-00055
X01078Y-00045
X01088Y-00055
Y-00035
X01068
X01078Y-00065
X01098
X01118
X01108Y-00055
X01118Y-00045
X01128Y-00055
X01148
X01138Y-00045
Y-00065
X01148Y-00075
X01128
X01108
Y-00095
X01118Y-00085
X01098
Y-00105
X01108Y-00115
X01098Y-00125
X01118
X01128Y-00115
X01148
X01138Y-00105
X01148Y-00095
X01138Y-00085
X01128Y-00095
X01118Y-00105
X01138Y-00125
X01148Y-00135
X01128Y-00135
X01108
X01088
X01078Y-00125
X01058
X01038
Y-00105
Y-00085
X01048Y-00135
X01068
X01058Y-00203
X01078
X01068Y-00213
Y-00233
X01078Y-00223
Y-00243
X01068Y-00253
X01078Y-00263
X01088Y-00273
X01098Y-00263
Y-00283
X01118
X01108Y-00273
X01118Y-00263
X01128Y-00273
X01148
X01138Y-00263
Y-00283
X01148Y-00293
X01128
X01108
Y-00313
X01118Y-00303
X01098
Y-00323
X01108Y-00333
X01098Y-00343
Y-00363
X01108Y-00353
X01118Y-00363
X01108Y-00373
X01118Y-00383
X01108Y-00393
Y-00413
X01118Y-00403
X01098
Y-00423
X01078
X01058
Y-00403
X01048Y-00413
X01038Y-00403
Y-00423
X01048Y-00393
X01068
Y-00413
X01078Y-00403
X01088Y-00413
Y-00393
X01078Y-00383
X01058
X01038
X01048Y-00373
Y-00353
X01058Y-00343
X01038
Y-00363
X01058
X01068Y-00353
X01078Y-00363
Y-00343
X01088Y-00353
Y-00373
X01068
X01098Y-00383
X01128Y-00393
X01138Y-00383
X01128Y-00373
X01128Y-00353
X01138Y-00363
X01148Y-00353
X01138Y-00343
X01148Y-00333
X01128
X01118Y-00343
Y-00323
X01128Y-00313
X01148
X01138Y-00323
X01138Y-00303
X01128Y-00253
X01108
X01118Y-00243
X01098
Y-00223
X01088Y-00233
Y-00213
X01108
Y-00233
X01118Y-00223
X01128Y-00233
X01138Y-00243
X01148Y-00253
X01088
X01078Y-00283
X01058
X01038
Y-00263
X01048Y-00273
X01068
X01058Y-00263
X01048Y-00253
X01038Y-00243
Y-00223
X01048Y-00233
X01058Y-00223
Y-00243
X01048Y-00213
X01038Y-00203
X01098
Y-00045
X01108Y-00035
X01128
X01148
Y-00373
X01038Y-00323
Y-00303
Y-00025
Y-00005
X01048Y-00015
Y00005
Y00025
Y00045
X01058Y00055
X01048Y00065
X01038Y00075
Y00055
Y00035
X01058
X01068Y00045
X01078Y00035
X01068Y00025
X01088
X01098Y00015
X01078
X01058
X01038
X01068Y00005
X01088
Y-00015
X01098Y-00005
X01118
X01108Y-00015
Y00005
X01128Y-00015
X01138Y-00025
X01118
X01098
X01078
Y-00005
X01068Y-00015
X01058Y-00005
Y-00025
X01028Y-00015
Y00005
X01008
X01018Y00015
X01008Y00025
X01018Y00035
Y00055
X01008Y00065
Y00085
X01028
X01018Y00075
X00998
X00988Y00085
X00978Y00075
X00988Y00065
X00998Y00055
X00978
Y00035
X00988Y00045
Y00025
X00978Y00015
Y-00005
Y-00025
X00988Y-00015
X00998Y-00025
Y-00005
X01018
X01008Y-00015
X01018Y-00025
X00988Y00005
X00998Y00015
Y00035
X01008Y00045
X01028
Y00025
X01028Y00065
X0081Y0011
X008Y001
X0079Y0011
X0078Y001
X0077Y0011
X0076Y001
X0075Y0011
X0073
X0074Y001
X0072
X0071Y0011
X007Y001
X0069Y0011
X0067
X0068Y001
X0066
X0065Y0011
Y0009
X0066Y0008
Y0006
X0065Y0007
Y0005
X0066Y0004
Y0002
X0065Y0001
X0064Y0002
Y0004
Y0006
Y0008
Y001
X0065Y0003
X0064Y-0002
X0071375Y-0002675
X0072825Y-000005
X0074625Y000325
X0077575Y00045
X00775Y00079
X0072Y00049
X0063Y0005
Y0007
X0062Y0006
Y0008
X0063Y0009
Y0011
X0062Y001
X0061Y0011
Y0009
Y0007
Y0005
Y0003
Y0001
X0063
X0062Y0002
X006
Y0004
X0062
X0063Y0003
X0059
X0057
X0058Y0004
X0057Y0005
X0059
Y0007
X006Y0006
Y0008
Y001
X0059Y0011
Y0009
X0057
X0058Y001
X0057Y0011
X0056Y001
X0054
X0055Y0011
X0053
Y0009
X0055
X0054Y0008
X0056
X0058
Y0006
X0057Y0007
X0056Y0006
X0054
X0055Y0007
X0053
Y0005
X0055
X0054Y0004
X0055Y0003
X0053
X0051
X0052Y0004
X0051Y0005
X0052Y0006
X0051Y0007
X0052Y0008
X0051Y0009
X0052Y001
X0051Y0011
X005Y001
X0049Y0011
Y0009
X005Y0008
Y0006
X0049Y0007
Y0005
Y0003
X005Y0004
X0048
Y0006
Y0008
Y001
X0047Y0011
Y0009
X0045
X0046Y001
X0045Y0011
X0044Y001
X0043Y0011
Y0009
X0044Y0008
X0046
Y0006
X0045Y0007
X0047
Y0005
X0045
X0046Y0004
X0044
X0043Y0003
X0045
X0047
X00465Y-00007
X00445
X00425
X00405
X00415Y-00017
X00395
X00385Y-00007
X00365
X00345
X00325
X00305
X00285
X00265
X00275Y-00017
X00255
X00245Y-00007
Y-00027
X00265
X00285
X00295Y-00017
X00305Y-00027
X00325
X00315Y-00017
X00335
X00345Y-00027
X00365
X00355Y-00017
X00375
X00385Y-00027
X00405
X00425
X00435Y-00017
X00455
X00465Y-00027
X00445
X00511212Y-00020236
X004925Y000005
X00543Y0000675
X0056Y0004
X005705Y-0002725
X006Y-0002
X0044Y0006
X0043Y0007
Y0005
X0042Y0006
Y0008
Y001
X0041Y0011
Y0009
X0039
X004Y001
X0039Y0011
X0038Y001
X0037Y0011
Y0009
X0038Y0008
X004
Y0006
X0039Y0007
X0041
Y0005
X0039
X004Y0004
X0038
X0037Y0003
X0039
X0041
X0042Y0004
X0038Y0006
X0037Y0007
Y0005
X0036Y0006
Y0008
Y001
X0035Y0011
Y0009
X0033
X0034Y001
X0033Y0011
X0032Y001
X0031Y0011
Y0009
X0032Y0008
X0034
Y0006
X0033Y0007
X0035
Y0005
X0033
X0034Y0004
X0032
X0031Y0003
X0033
X0035
X0036Y0004
X0032Y0006
X0031Y0007
Y0005
X003Y0006
Y0008
Y001
X0029Y0011
Y0009
X0027
X0028Y001
X0027Y0011
X0026Y001
X0025Y0011
Y0009
X0026Y0008
X0028
Y0006
X0027Y0007
X0029
Y0005
X0027
X0028Y0004
X0026
X0025Y0003
X0027
X0029
X003Y0004
X0026Y0006
X0025Y0007
Y0005
X0024Y0006
Y0008
Y001
Y0004
X0023Y0005
Y0007
X0022Y0006
X0021Y0007
X0022Y0008
X0021Y0009
X0023
Y0011
X0022Y001
X0021Y0011
X002Y001
X0019Y0011
Y0009
X002Y0008
Y0006
X0019Y0007
Y0005
Y0003
X002Y0004
X0022
X0021Y0005
Y0003
X0023
X00225Y-00007
X00205
X00185
Y-00027
X00195Y-00017
X00205Y-00027
X00225
X00215Y-00017
X00235
X00165
X00155Y-00027
Y-00007
X0013Y-0001
X0012Y-0002
Y0
X0011Y-0001
X001Y-0002
Y0002
X0009Y0001
Y0003
X001Y0004
X0009Y0005
X0011
Y0007
X0012Y0006
X0013Y0007
Y0005
X0014Y0004
X0016
X0015Y0003
X0017
Y0005
X0015
Y0007
X0016Y0006
X0014
Y0008
X0016
X0015Y0009
Y0011
X0016Y001
X0014
X0013Y0011
Y0009
X0012Y001
X0011Y0011
Y0009
X0009
X001Y001
X0009Y0011
X0008Y001
X0007Y0011
Y0009
X0008Y0008
X001
Y0006
X0009Y0007
X0008Y0006
X0007Y0007
Y0005
X0008Y0004
X0007Y0003
Y0001
X0008Y0002
Y0
X0007Y-0001
X0006Y-0002
X0004
X0002
X0003Y-0001
X0005
X0004Y0
X0006
Y0002
X0005Y0001
X0004Y0002
X0005Y0003
X0004Y0004
X0006
Y0006
Y0008
X0004
X0005Y0009
X0006Y001
X0005Y0007
X0004Y0006
X0003Y0007
Y0005
X0005
X0001
X0Y0004
X0001Y0003
X0002Y0004
Y0002
X0
X0001Y0001
X0Y0
X0001Y-0001
X0002Y0
X0003Y0001
Y0003
X0002Y0006
X0Y-0002
X-0004
X-0005Y-0001
X-0006Y-0002
X-0007Y-0001
X-0008Y-0002
X-001
X-0009Y-0001
X-0011
X0011Y0003
X0012Y0004
X0013Y0003
X0018Y0004
Y0006
X0017Y0007
Y0009
Y0011
X0018Y001
Y0008
X0012
X-0016Y-0002
X-0017Y-0001
X-0019
X-0018Y-0002
X-002
X-0022
X-0021Y-0001
X-0023
X-0025
X-0024Y-0002
X-0026
X-0027Y-0001
X-0028Y-0002
X-003
X-0032
X-0034
X-0033Y-0001
X-0035
X-0036Y-0002
X-0037Y-0001
X-0031
X-0029
T02
X0068925Y-0072885
Y-004437
X0101375Y-004445
X003555Y-0042725
X0001225Y-00197
X0005475Y-0011375
X00437Y-00241
X00435Y-00314
X00437Y-00385
X0049Y-00369
X00489Y-002875
X0049Y-00208
X0035575Y-0036675
Y-00398
X0068875Y-00153
X0101375Y-0015935
Y001255
T03
X00426Y-0060755
Y-0058215
Y-0055675
Y-0053135
Y-0050595
X00544Y-006
X00619
X006195Y-00408667
X005445
Y-00217333
X006195
X0062Y-00026
X00545
T04
X00257Y-0067375
X00339Y-0067775
X00364
X00389Y-00678
X00414Y-0067775
X00439
X00464
X00232Y-00674
X00207Y-0067375
X00182
X0000335Y-006566
X-0002435
X-0005205
X-0007975
X-0010745
X-000936Y-00685
X-000659
X-000382
X-000105
X-00365246Y-0035425
Y-0024425
X-00156Y0005
X-00072Y0005425
X-00047Y00054
X-00022
X-00181Y0005
X-00206Y0005025
X-00231Y0005
T05
X-00265246Y-0032425
Y-0027425
T06
X01124Y-00707
X000729Y-006708
X-00177
X-00336Y-00707
X01124Y00083
X-00336
T07
X01068Y-00531
X-00289Y-00564
X-0029Y-0005
X01068Y-00095
Y-00313
M30
